<svg width="24" height="24" viewBox="0 0 24 24" fill="none" xmlns="http://www.w3.org/2000/svg">
<path d="M5.08127 6.3375C4.72877 5.985 4.72877 5.415 5.08127 5.06625C5.43377 4.7175 6.00377 4.71375 6.35252 5.06625L12.015 10.7288L17.6775 5.06625C18.03 4.71375 18.6 4.71375 18.9488 5.06625C19.2975 5.41875 19.3013 5.98875 18.9488 6.3375L13.2863 12L18.9488 17.6625C19.3013 18.015 19.3013 18.585 18.9488 18.9338C18.5963 19.2825 18.0263 19.2863 17.6775 18.9338L12.015 13.2713L6.35252 18.9338C6.00002 19.2863 5.43002 19.2863 5.08127 18.9338C4.73252 18.5813 4.72877 18.0113 5.08127 17.6625L10.7438 12L5.08127 6.3375Z" fill="black"/>
</svg>
