<svg width="24" height="24" viewBox="0 0 24 24" fill="none" xmlns="http://www.w3.org/2000/svg">
<path d="M12.0001 2.39999C11.5013 2.39999 11.1001 2.80124 11.1001 3.29999V3.66374C8.0476 4.09874 5.7001 6.72749 5.7001 9.89999V10.4437C5.7001 11.8575 5.3251 13.245 4.6126 14.4675L3.79135 15.87C3.6676 16.0875 3.6001 16.3312 3.6001 16.5825C3.6001 17.3662 4.23385 18 5.0176 18H18.9826C19.7663 18 20.4001 17.3662 20.4001 16.5825C20.4001 16.3312 20.3326 16.0837 20.2088 15.87L19.3876 14.4637C18.6751 13.2412 18.3001 11.8537 18.3001 10.44V9.89624C18.3001 6.72374 15.9526 4.09499 12.9001 3.65999V3.29624C12.9001 2.79749 12.4988 2.39624 12.0001 2.39624V2.39999ZM18.3151 16.2H5.68135L6.1651 15.3712C7.03885 13.875 7.5001 12.1725 7.5001 10.4437V9.89999C7.5001 7.41374 9.51385 5.39999 12.0001 5.39999C14.4863 5.39999 16.5001 7.41374 16.5001 9.89999V10.4437C16.5001 12.1762 16.9613 13.875 17.8313 15.3712L18.3151 16.2ZM9.45385 19.8C9.8251 20.85 10.8263 21.6 12.0001 21.6C13.1738 21.6 14.1751 20.85 14.5463 19.8H9.45385Z" fill="black"/>
</svg>
