<svg width="24" height="24" viewBox="0 0 24 24" fill="none" xmlns="http://www.w3.org/2000/svg">
<path d="M18.0001 5.40001C18.3301 5.40001 18.6001 5.67001 18.6001 6.00001V18C18.6001 18.33 18.3301 18.6 18.0001 18.6H6.0001C5.6701 18.6 5.4001 18.33 5.4001 18V6.00001C5.4001 5.67001 5.6701 5.40001 6.0001 5.40001H18.0001ZM6.0001 3.60001C4.67635 3.60001 3.6001 4.67626 3.6001 6.00001V18C3.6001 19.3238 4.67635 20.4 6.0001 20.4H18.0001C19.3238 20.4 20.4001 19.3238 20.4001 18V6.00001C20.4001 4.67626 19.3238 3.60001 18.0001 3.60001H6.0001Z" fill="black"/>
</svg>
