<svg width="164" height="164" viewBox="0 0 164 164" fill="none" xmlns="http://www.w3.org/2000/svg">
<path d="M135.095 15.0931L138.554 25.4456L148.907 28.905C150.572 29.4688 151.7 31.0319 151.7 32.8C151.7 34.5681 150.572 36.1313 148.907 36.695L138.554 40.1544L135.095 50.5069C134.531 52.1725 132.968 53.3 131.2 53.3C129.432 53.3 127.869 52.1725 127.305 50.5069L123.846 40.1544L113.493 36.695C111.827 36.1313 110.7 34.5681 110.7 32.8C110.7 31.0319 111.827 29.4688 113.493 28.905L123.846 25.4456L127.305 15.0931C127.869 13.4275 129.432 12.3 131.2 12.3C132.968 12.3 134.531 13.4275 135.095 15.0931ZM87.3299 38.9756C91.3786 35.3625 97.5543 35.5419 101.398 39.3856L124.461 62.4481C128.458 66.4456 128.458 72.9287 124.461 76.9519L121.129 80.2575C122.359 84.7419 123 89.4313 123 94.3C123 123.743 99.143 147.6 69.6999 147.6C40.2568 147.6 16.3999 123.743 16.3999 94.3C16.3999 64.8569 40.2568 41 69.6999 41C74.338 41 78.8224 41.5894 83.1274 42.7169L87.3299 38.9756ZM94.0436 49.4563L88.7393 54.1712C87.0993 55.6319 84.793 56.0931 82.6918 55.4013C78.6174 54.0431 74.2355 53.3 69.6743 53.3C47.0218 53.3 28.6743 71.6475 28.6743 94.3C28.6743 116.952 47.0218 135.3 69.6743 135.3C92.3268 135.3 110.674 116.952 110.674 94.3C110.674 89.4825 109.854 84.87 108.342 80.5906C107.548 78.3613 108.112 75.8756 109.803 74.1844L114.287 69.6744L94.0436 49.4306V49.4563ZM53.2999 94.3C53.2999 97.7081 50.558 100.45 47.1499 100.45C43.7418 100.45 40.9999 97.7081 40.9999 94.3C40.9999 78.4381 53.838 65.6 69.6999 65.6C73.108 65.6 75.8499 68.3419 75.8499 71.75C75.8499 75.1581 73.108 77.9 69.6999 77.9C60.6543 77.9 53.2999 85.2544 53.2999 94.3Z" fill="black"/>
</svg>
