<svg width="20" height="20" viewBox="0 0 20 20" fill="none" xmlns="http://www.w3.org/2000/svg">
<path d="M3.5 16C2.11875 16 1 14.8813 1 13.5V6.5C1 5.11875 2.11875 4 3.5 4H9.48438L7.84062 5.5H3.5C2.94687 5.5 2.5 5.94687 2.5 6.5V13.5C2.5 14.0531 2.94687 14.5 3.5 14.5H5.87813C5.70312 14.9969 5.70938 15.525 5.87813 16H3.5ZM14.1219 5.5C14.2969 5.00312 14.2906 4.475 14.1219 4H16.5C17.8813 4 19 5.11875 19 6.5V8C19.5531 8 20 8.44688 20 9V11C20 11.5531 19.5531 12 19 12V13.5C19 14.8813 17.8813 16 16.5 16H10.5156L12.1594 14.5H16.5C17.0531 14.5 17.5 14.0531 17.5 13.5V6.5C17.5 5.94687 17.0531 5.5 16.5 5.5H14.1219ZM12.4219 4.13125C12.7094 4.32812 12.825 4.69375 12.7 5.01875L11.0875 9.25H13.75C14.0594 9.25 14.3375 9.44062 14.45 9.72812C14.5625 10.0156 14.4844 10.3438 14.2563 10.5531L8.50625 15.8031C8.25 16.0375 7.86562 16.0656 7.57812 15.8687C7.29063 15.6719 7.175 15.3062 7.3 14.9812L8.9125 10.75H6.25C5.94063 10.75 5.6625 10.5594 5.55 10.2719C5.4375 9.98438 5.51562 9.65625 5.74375 9.44687L11.4937 4.19688C11.75 3.9625 12.1344 3.93437 12.4219 4.13125Z" fill="black"/>
</svg>
