<svg width="16" height="16" viewBox="0 0 16 16" fill="none" xmlns="http://www.w3.org/2000/svg">
<path d="M8.0001 1.60001C8.8826 1.60001 9.6001 2.31751 9.6001 3.20001C9.6001 4.08251 8.8826 4.80001 8.0001 4.80001C7.1176 4.80001 6.4001 4.08251 6.4001 3.20001C6.4001 2.31751 7.1176 1.60001 8.0001 1.60001ZM2.6001 3.80001C2.6001 3.02751 3.2276 2.40001 4.0001 2.40001C4.7726 2.40001 5.4001 3.02751 5.4001 3.80001C5.4001 4.57251 4.7726 5.20001 4.0001 5.20001C3.2276 5.20001 2.6001 4.57251 2.6001 3.80001ZM4.1776 7.61501C3.3976 7.72251 2.8001 8.39251 2.8001 9.20001C2.8001 9.69751 3.0251 10.14 3.3826 10.435C3.5201 10.55 3.6001 10.7175 3.6001 10.8975V13C3.6001 13.3325 3.3326 13.6 3.0001 13.6C2.6676 13.6 2.4001 13.3325 2.4001 13V11.16C1.9051 10.655 1.6001 9.96251 1.6001 9.20001C1.6001 7.65251 2.8526 6.40001 4.4001 6.40001C4.5301 6.40001 4.6551 6.40751 4.7801 6.42501C4.5176 6.78001 4.3126 7.18251 4.1776 7.61501ZM11.8201 7.61501C11.6851 7.18251 11.4801 6.78251 11.2176 6.42501C11.3426 6.40751 11.4701 6.40001 11.5976 6.40001C13.1451 6.40001 14.3976 7.65251 14.3976 9.20001C14.3976 9.96251 14.0926 10.655 13.5976 11.16V13C13.5976 13.3325 13.3301 13.6 12.9976 13.6C12.6651 13.6 12.3976 13.3325 12.3976 13V10.8975C12.3976 10.7175 12.4776 10.55 12.6151 10.435C12.9726 10.14 13.1976 9.69751 13.1976 9.20001C13.1976 8.39251 12.5976 7.72251 11.8201 7.61501ZM13.4001 3.80001C13.4001 4.57251 12.7726 5.20001 12.0001 5.20001C11.2276 5.20001 10.6001 4.57251 10.6001 3.80001C10.6001 3.02751 11.2276 2.40001 12.0001 2.40001C12.7726 2.40001 13.4001 3.02751 13.4001 3.80001ZM8.0001 7.20001C7.1176 7.20001 6.4001 7.91751 6.4001 8.80001V9.20001C6.4001 9.69751 6.6251 10.14 6.9826 10.435C7.1201 10.55 7.2001 10.7175 7.2001 10.8975V13C7.2001 13.11 7.2901 13.2 7.4001 13.2H8.6001C8.7101 13.2 8.8001 13.11 8.8001 13V10.8975C8.8001 10.7175 8.8801 10.55 9.0176 10.435C9.3751 10.14 9.6001 9.69751 9.6001 9.20001V8.80001C9.6001 7.91751 8.8826 7.20001 8.0001 7.20001ZM5.2001 8.80001C5.2001 7.25251 6.4526 6.00001 8.0001 6.00001C9.5476 6.00001 10.8001 7.25251 10.8001 8.80001V9.20001C10.8001 9.96251 10.4951 10.655 10.0001 11.16V13C10.0001 13.7725 9.3726 14.4 8.6001 14.4H7.4001C6.6276 14.4 6.0001 13.7725 6.0001 13V11.16C5.5051 10.655 5.2001 9.96251 5.2001 9.20001V8.80001Z" fill="black"/>
</svg>
