<svg width="16" height="16" viewBox="0 0 16 16" fill="none" xmlns="http://www.w3.org/2000/svg">
<path d="M8.0001 1.60001C8.8976 1.60001 9.6951 2.02501 10.2026 2.68501C11.0276 2.57751 11.8926 2.84001 12.5276 3.47501C13.1626 4.11001 13.4251 4.97501 13.3176 5.80001C13.9751 6.30501 14.4001 7.10251 14.4001 8.00001C14.4001 8.89751 13.9751 9.69501 13.3151 10.2025C13.4226 11.0275 13.1601 11.8925 12.5251 12.5275C11.8901 13.1625 11.0251 13.425 10.2001 13.3175C9.6951 13.975 8.8976 14.4 8.0001 14.4C7.1026 14.4 6.3051 13.975 5.7976 13.315C4.9726 13.4225 4.1076 13.16 3.4726 12.525C2.8376 11.89 2.5751 11.025 2.6826 10.2C2.0251 9.69501 1.6001 8.89751 1.6001 8.00001C1.6001 7.10251 2.0251 6.30501 2.6851 5.79751C2.5776 4.97251 2.8401 4.10751 3.4751 3.47251C4.1101 2.83751 4.9751 2.57501 5.8001 2.68251C6.3051 2.02501 7.1026 1.60001 8.0001 1.60001ZM8.0001 2.80001C7.3976 2.80001 6.8726 3.14001 6.6076 3.64001C6.4726 3.89501 6.1751 4.01751 5.9026 3.93251C5.3626 3.76751 4.7501 3.89751 4.3251 4.32501C3.9001 4.75251 3.7651 5.36001 3.9301 5.90001C4.0151 6.17501 3.8926 6.47251 3.6376 6.60501C3.1376 6.87001 2.7976 7.39501 2.7976 7.99751C2.7976 8.60001 3.1376 9.12501 3.6376 9.39001C3.8926 9.52501 4.0151 9.82251 3.9301 10.095C3.7651 10.635 3.8951 11.2475 4.3226 11.6725C4.7501 12.0975 5.3601 12.23 5.9001 12.065C6.1751 11.98 6.4726 12.1025 6.6051 12.3575C6.8701 12.8575 7.3951 13.1975 7.9976 13.1975C8.6001 13.1975 9.1251 12.8575 9.3901 12.3575C9.5251 12.1025 9.8226 11.98 10.0951 12.065C10.6351 12.23 11.2451 12.1 11.6726 11.6725C12.0976 11.2475 12.2301 10.635 12.0651 10.095C11.9801 9.82001 12.1026 9.52251 12.3576 9.39001C12.8576 9.12501 13.1976 8.60001 13.1976 7.99751C13.1976 7.39501 12.8576 6.87001 12.3576 6.60501C12.1026 6.47001 11.9801 6.17251 12.0651 5.90001C12.2301 5.36001 12.1001 4.74751 11.6726 4.32251C11.2451 3.89751 10.6401 3.76501 10.1001 3.93001C9.8251 4.01501 9.5276 3.89251 9.3951 3.63751C9.1301 3.13751 8.6051 2.79751 8.0026 2.79751L8.0001 2.80001ZM9.4351 5.84751C9.6301 5.58001 10.0051 5.52001 10.2726 5.71501C10.5401 5.91001 10.6001 6.28501 10.4051 6.55251L7.8451 10.0725C7.7401 10.215 7.5776 10.3075 7.4001 10.3175C7.2226 10.3275 7.0501 10.2625 6.9276 10.135L5.7676 8.93501C5.5376 8.69751 5.5426 8.31751 5.7826 8.08751C6.0226 7.85751 6.4001 7.86501 6.6301 8.10251L7.2926 8.78751L9.4326 5.84501L9.4351 5.84751Z" fill="black"/>
</svg>
