<svg width="164" height="164" viewBox="0 0 164 164" fill="none" xmlns="http://www.w3.org/2000/svg">
<path d="M135.095 15.0931L138.554 25.4456L148.907 28.905C150.573 29.4688 151.7 31.0319 151.7 32.8C151.7 34.5681 150.573 36.1313 148.907 36.695L138.554 40.1544L135.095 50.5069C134.531 52.1725 132.968 53.3 131.2 53.3C129.432 53.3 127.869 52.1725 127.305 50.5069L123.846 40.1544L113.493 36.695C111.828 36.1313 110.7 34.5681 110.7 32.8C110.7 31.0319 111.828 29.4688 113.493 28.905L123.846 25.4456L127.305 15.0931C127.869 13.4275 129.432 12.3 131.2 12.3C132.968 12.3 134.531 13.4275 135.095 15.0931ZM87.33 38.9756C91.3788 35.3625 97.5544 35.5419 101.398 39.3856L124.461 62.4481C128.458 66.4456 128.458 72.9287 124.461 76.9519L121.129 80.2575C122.359 84.7419 123 89.4313 123 94.3C123 123.743 99.1431 147.6 69.7 147.6C40.2569 147.6 16.4 123.743 16.4 94.3C16.4 64.8569 40.2569 41 69.7 41C74.3381 41 78.8225 41.5894 83.1275 42.7169L87.33 38.9756ZM94.0438 49.4563L88.7394 54.1713C87.0994 55.6319 84.7932 56.0931 82.6919 55.4013C78.6175 54.0431 74.2356 53.3 69.6744 53.3C47.0219 53.3 28.6744 71.6475 28.6744 94.3C28.6744 116.953 47.0219 135.3 69.6744 135.3C92.3269 135.3 110.674 116.953 110.674 94.3C110.674 89.4825 109.854 84.87 108.343 80.5906C107.548 78.3613 108.112 75.8756 109.803 74.1844L114.288 69.6744L94.0438 49.4306V49.4563ZM53.3 94.3C53.3 97.7081 50.5581 100.45 47.15 100.45C43.7419 100.45 41 97.7081 41 94.3C41 78.4381 53.8381 65.6 69.7 65.6C73.1081 65.6 75.85 68.3419 75.85 71.75C75.85 75.1581 73.1081 77.9 69.7 77.9C60.6544 77.9 53.3 85.2544 53.3 94.3Z" fill="#F05E5E"/>
</svg>
