<svg width="28" height="28" viewBox="0 0 28 28" fill="none" xmlns="http://www.w3.org/2000/svg">
<path d="M11.2002 4.89999C10.8152 4.89999 10.5002 5.21499 10.5002 5.59999V14H17.5002V5.59999C17.5002 5.21499 17.1852 4.89999 16.8002 4.89999H11.2002ZM19.6002 5.59999V14H20.3002C21.4596 14 22.4002 14.9406 22.4002 16.1V18.2C22.4002 19.3594 21.4596 20.3 20.3002 20.3H15.0502V23.1H17.1502C17.7321 23.1 18.2002 23.5681 18.2002 24.15C18.2002 24.7319 17.7321 25.2 17.1502 25.2H10.8502C10.2683 25.2 9.8002 24.7319 9.8002 24.15C9.8002 23.5681 10.2683 23.1 10.8502 23.1H12.9502V20.3H7.7002C6.54082 20.3 5.6002 19.3594 5.6002 18.2V16.1C5.6002 14.9406 6.54082 14 7.7002 14H8.4002V5.59999C8.4002 4.05561 9.65582 2.79999 11.2002 2.79999H16.8002C18.3446 2.79999 19.6002 4.05561 19.6002 5.59999ZM14.0002 18.2H20.3002V16.1H7.7002V18.2H14.0002ZM6.3002 9.44999V11.55C6.3002 12.1319 5.83207 12.6 5.2502 12.6C4.66832 12.6 4.2002 12.1319 4.2002 11.55V9.44999C4.2002 8.86811 4.66832 8.39999 5.2502 8.39999C5.83207 8.39999 6.3002 8.86811 6.3002 9.44999ZM23.8002 9.44999V11.55C23.8002 12.1319 23.3321 12.6 22.7502 12.6C22.1683 12.6 21.7002 12.1319 21.7002 11.55V9.44999C21.7002 8.86811 22.1683 8.39999 22.7502 8.39999C23.3321 8.39999 23.8002 8.86811 23.8002 9.44999Z" fill="black"/>
</svg>
