<svg width="16" height="16" viewBox="0 0 16 16" fill="none" xmlns="http://www.w3.org/2000/svg">
<path d="M6.4001 3.00001V4.00001H9.6001V3.00001C9.6001 2.89001 9.5101 2.80001 9.4001 2.80001H6.6001C6.4901 2.80001 6.4001 2.89001 6.4001 3.00001ZM5.2001 4.00001V3.00001C5.2001 2.22751 5.8276 1.60001 6.6001 1.60001H9.4001C10.1726 1.60001 10.8001 2.22751 10.8001 3.00001V4.00001H12.8001C13.6826 4.00001 14.4001 4.71751 14.4001 5.60001V12C14.4001 12.8825 13.6826 13.6 12.8001 13.6H3.2001C2.3176 13.6 1.6001 12.8825 1.6001 12V5.60001C1.6001 4.71751 2.3176 4.00001 3.2001 4.00001H5.2001ZM2.8001 9.20001V12C2.8001 12.22 2.9801 12.4 3.2001 12.4H12.8001C13.0201 12.4 13.2001 12.22 13.2001 12V9.20001H9.6001V9.60001C9.6001 10.0425 9.2426 10.4 8.8001 10.4H7.2001C6.7576 10.4 6.4001 10.0425 6.4001 9.60001V9.20001H2.8001ZM6.4001 8.00001H13.2001V5.60001C13.2001 5.38001 13.0201 5.20001 12.8001 5.20001H3.2001C2.9801 5.20001 2.8001 5.38001 2.8001 5.60001V8.00001H6.4001Z" fill="black"/>
</svg>
