<svg width="20" height="20" viewBox="0 0 20 20" fill="none" xmlns="http://www.w3.org/2000/svg">
<path d="M2.21875 9.48439C1.925 9.77814 1.925 10.2531 2.21875 10.5438L7.46875 15.7938C7.7625 16.0875 8.2375 16.0875 8.52813 15.7938C8.81875 15.5 8.82188 15.025 8.52813 14.7344L4.55938 10.7656L17.25 10.7656C17.6656 10.7656 18 10.4313 18 10.0156C18 9.60001 17.6656 9.26564 17.25 9.26564L4.55938 9.26564L8.52813 5.29689C8.82188 5.00314 8.82188 4.52814 8.52813 4.23751C8.23438 3.94689 7.75938 3.94376 7.46875 4.23751L2.21875 9.48751L2.21875 9.48439Z" fill="black"/>
</svg>
