<svg width="20" height="20" viewBox="0 0 20 20" fill="none" xmlns="http://www.w3.org/2000/svg">
<path d="M14.2969 2.21876C14.0813 2.00314 13.7594 1.94064 13.4781 2.05626C13.1969 2.17189 13.0156 2.44689 13.0156 2.75001V4.50001H11.5156C8.75313 4.50001 6.51562 6.73751 6.51562 9.50001C6.51562 10.9594 7.1625 12.0125 7.87813 12.7313C8.13125 12.9875 8.39375 13.1969 8.6375 13.3688C8.925 13.5719 9.31563 13.5469 9.57812 13.3094C9.84062 13.0719 9.89687 12.6844 9.71875 12.3781C9.60625 12.1813 9.51562 11.9125 9.51562 11.5438C9.51562 10.4125 10.4312 9.49689 11.5625 9.49689H13.0156V11.2469C13.0156 11.55 13.1969 11.825 13.4781 11.9406C13.7594 12.0563 14.0813 11.9938 14.2969 11.7781L18.5469 7.52814C18.8406 7.23439 18.8406 6.75939 18.5469 6.46876L14.2969 2.21876ZM14.5156 5.25001V4.55939L16.9562 7.00001L14.5156 9.44064V8.75001C14.5156 8.33439 14.1812 8.00001 13.7656 8.00001H11.5625C9.97188 8.00001 8.62813 9.04689 8.17813 10.4875C8.075 10.1938 8.01562 9.86876 8.01562 9.50001C8.01562 7.56564 9.58125 6.00001 11.5156 6.00001H13.7656C14.1812 6.00001 14.5156 5.66564 14.5156 5.25001ZM4.51562 5.00001C3.13437 5.00001 2.01562 6.11876 2.01562 7.50001V15.5C2.01562 16.8813 3.13437 18 4.51562 18H12.5156C13.8969 18 15.0156 16.8813 15.0156 15.5V14.75C15.0156 14.3344 14.6812 14 14.2656 14C13.85 14 13.5156 14.3344 13.5156 14.75V15.5C13.5156 16.0531 13.0688 16.5 12.5156 16.5H4.51562C3.9625 16.5 3.51562 16.0531 3.51562 15.5V7.50001C3.51562 6.94689 3.9625 6.50001 4.51562 6.50001H5.26562C5.68125 6.50001 6.01562 6.16564 6.01562 5.75001C6.01562 5.33439 5.68125 5.00001 5.26562 5.00001H4.51562Z" fill="black"/>
</svg>
