<svg width="20" height="20" viewBox="0 0 20 20" fill="none" xmlns="http://www.w3.org/2000/svg">
<path d="M8.9 3C8.64687 3.44062 8.5 3.95312 8.5 4.5H3C2.725 4.5 2.5 4.725 2.5 5V12C2.5 12.275 2.725 12.5 3 12.5H8.5V14H3C1.89688 14 1 13.1031 1 12V5C1 3.89687 1.89688 3 3 3H8.9ZM8.5 15.5C8.5 16.0469 8.64687 16.5594 8.9 17H4.75C4.33437 17 4 16.6656 4 16.25C4 15.8344 4.33437 15.5 4.75 15.5H8.5ZM11.5 4.5V15.5H17.5V4.5H11.5ZM10 4.5C10 3.67187 10.6719 3 11.5 3H17.5C18.3281 3 19 3.67187 19 4.5V15.5C19 16.3281 18.3281 17 17.5 17H11.5C10.6719 17 10 16.3281 10 15.5V4.5ZM13.5 7C13.5 6.44687 13.9469 6 14.5 6C15.0531 6 15.5 6.44687 15.5 7C15.5 7.55312 15.0531 8 14.5 8C13.9469 8 13.5 7.55312 13.5 7ZM14.5 11C15.3281 11 16 11.6719 16 12.5C16 13.3281 15.3281 14 14.5 14C13.6719 14 13 13.3281 13 12.5C13 11.6719 13.6719 11 14.5 11Z" fill="black"/>
</svg>
