<svg width="132" height="132" viewBox="0 0 132 132" fill="none" xmlns="http://www.w3.org/2000/svg">
<path d="M65.6 0C75.03 0 83.23 5.30437 87.3556 13.0944C95.7862 10.5062 105.319 12.5306 111.981 19.2187C118.644 25.9069 120.694 35.4394 118.106 43.87C125.896 47.97 131.2 56.17 131.2 65.6C131.2 75.03 125.896 83.23 118.106 87.3556C120.694 95.7862 118.644 105.319 111.981 111.981C105.319 118.644 95.7606 120.694 87.33 118.106C83.23 125.896 75.03 131.2 65.6 131.2C56.17 131.2 47.97 125.896 43.8444 118.106C35.4138 120.694 25.8812 118.644 19.2187 111.981C12.5562 105.319 10.5062 95.7606 13.0944 87.33C5.30437 83.23 0 75.03 0 65.6C0 56.17 5.30437 47.97 13.0944 43.8444C10.5062 35.4138 12.5306 25.8812 19.2187 19.2187C25.9069 12.5562 35.4394 10.5062 43.87 13.0944C47.97 5.30437 56.17 0 65.6 0ZM88.8931 42.1788C86.1512 40.18 82.3075 40.795 80.3087 43.5369L58.3737 73.6975L51.5831 66.6763C49.2256 64.2419 45.3306 64.165 42.8962 66.5225C40.4619 68.88 40.385 72.775 42.7425 75.2094L54.6325 87.5094C55.8881 88.8162 57.6563 89.5081 59.4756 89.38C61.295 89.2519 62.9606 88.3294 64.0369 86.8687L90.2513 50.7631C92.25 48.0213 91.635 44.1775 88.8931 42.1788Z" fill="#0095FF"/>
</svg>
