<svg width="20" height="20" viewBox="0 0 20 20" fill="none" xmlns="http://www.w3.org/2000/svg">
<path d="M10 5C7.15937 5 4.5875 6.125 2.69687 7.95625C2.3 8.34062 1.66562 8.33125 1.28437 7.93437C0.903123 7.5375 0.909373 6.90312 1.30625 6.52187C3.55312 4.34062 6.62187 3 10 3C13.3781 3 16.4469 4.34062 18.6969 6.52187C19.0937 6.90625 19.1031 7.54062 18.7187 7.93437C18.3344 8.32812 17.7 8.34062 17.3062 7.95625C15.4125 6.125 12.8406 5 10 5ZM8.5 15.5C8.5 14.6719 9.17187 14 10 14C10.8281 14 11.5 14.6719 11.5 15.5C11.5 16.3281 10.8281 17 10 17C9.17187 17 8.5 16.3281 8.5 15.5ZM6.25 12.1937C5.88437 12.6094 5.25312 12.6469 4.8375 12.2812C4.42187 11.9156 4.38437 11.2844 4.75 10.8687C6.03125 9.41875 7.90937 8.5 10 8.5C12.0906 8.5 13.9687 9.41875 15.25 10.8687C15.6156 11.2844 15.575 11.9156 15.1625 12.2812C14.75 12.6469 14.1156 12.6062 13.75 12.1937C12.8312 11.1531 11.4937 10.5 10 10.5C8.50625 10.5 7.16875 11.1531 6.25 12.1937Z" fill="black"/>
</svg>
