<svg width="164" height="164" viewBox="0 0 164 164" fill="none" xmlns="http://www.w3.org/2000/svg">
<path d="M82.0009 16.3999C91.4309 16.3999 99.6309 21.7043 103.757 29.4943C112.187 26.9062 121.72 28.9306 128.382 35.6187C135.045 42.3068 137.095 51.8393 134.507 60.2699C142.297 64.3699 147.601 72.5699 147.601 81.9999C147.601 91.4299 142.297 99.6299 134.507 103.756C137.095 112.186 135.045 121.719 128.382 128.381C121.72 135.044 112.161 137.094 103.731 134.506C99.6309 142.296 91.4309 147.6 82.0009 147.6C72.5709 147.6 64.3709 142.296 60.2453 134.506C51.8146 137.094 42.2821 135.044 35.6196 128.381C28.9571 121.719 26.9071 112.161 29.4953 103.73C21.7053 99.6299 16.4009 91.4299 16.4009 81.9999C16.4009 72.5699 21.7053 64.3699 29.4953 60.2443C26.9071 51.8137 28.9315 42.2812 35.6196 35.6187C42.3078 28.9562 51.8403 26.9062 60.2709 29.4943C64.3709 21.7043 72.5709 16.3999 82.0009 16.3999ZM105.294 58.5787C102.552 56.5799 98.7084 57.1949 96.7096 59.9368L74.7746 90.0974L67.984 83.0762C65.6265 80.6418 61.7315 80.5649 59.2971 82.9224C56.8628 85.2799 56.7859 89.1749 59.1434 91.6093L71.0334 103.909C72.289 105.216 74.0571 105.908 75.8765 105.78C77.6959 105.652 79.3615 104.729 80.4378 103.269L106.652 67.1631C108.651 64.4212 108.036 60.5774 105.294 58.5787Z" fill="black"/>
</svg>
