<svg width="24" height="24" viewBox="0 0 24 24" fill="none" xmlns="http://www.w3.org/2000/svg">
<path d="M17.9999 10.2C17.9999 11.9213 17.4412 13.5113 16.4999 14.8013L21.2474 19.5525C21.7162 20.0213 21.7162 20.7825 21.2474 21.2513C20.7787 21.72 20.0174 21.72 19.5487 21.2513L14.8012 16.5C13.5112 17.4413 11.9212 18 10.1999 18C5.89115 18 2.3999 14.5088 2.3999 10.2C2.3999 5.89127 5.89115 2.40002 10.1999 2.40002C14.5087 2.40002 17.9999 5.89127 17.9999 10.2ZM10.1999 15.6C13.1812 15.6 15.5999 13.1813 15.5999 10.2C15.5999 7.21877 13.1812 4.80002 10.1999 4.80002C7.21865 4.80002 4.7999 7.21877 4.7999 10.2C4.7999 13.1813 7.21865 15.6 10.1999 15.6Z" fill="black"/>
</svg>
