<svg width="16" height="16" viewBox="0 0 16 16" fill="none" xmlns="http://www.w3.org/2000/svg">
<path d="M8.53747 1.12749C8.43497 0.927488 8.22747 0.799988 8.00247 0.799988C7.77747 0.799988 7.56997 0.927488 7.46747 1.12749L5.62747 4.73249L1.62997 5.36749C1.40747 5.40249 1.22247 5.55999 1.15247 5.77499C1.08247 5.98999 1.13997 6.22499 1.29747 6.38499L4.15747 9.24749L3.52747 13.245C3.49247 13.4675 3.58497 13.6925 3.76747 13.825C3.94997 13.9575 4.18997 13.9775 4.39247 13.875L8.00247 12.04L11.61 13.875C11.81 13.9775 12.0525 13.9575 12.235 13.825C12.4175 13.6925 12.51 13.47 12.475 13.245L11.8425 9.24749L14.7025 6.38499C14.8625 6.22499 14.9175 5.98999 14.8475 5.77499C14.7775 5.55999 14.595 5.40249 14.37 5.36749L10.375 4.73249L8.53747 1.12749Z" fill="black"/>
</svg>
