<svg width="24" height="24" viewBox="0 0 24 24" fill="none" xmlns="http://www.w3.org/2000/svg">
<path d="M16.6087 5.40001C15.5849 5.40001 14.6212 5.89126 14.0212 6.72001L12.7312 8.50501C12.5624 8.73751 12.2924 8.87626 12.0037 8.87626C11.7149 8.87626 11.4449 8.73751 11.2762 8.50501L9.98615 6.72001C9.38615 5.89126 8.4224 5.40001 7.39865 5.40001C5.63615 5.40001 4.2074 6.82876 4.2074 8.59126C4.2074 10.4625 5.4074 12.2813 6.76115 13.9275C8.3024 15.8025 10.1887 17.4525 11.4824 18.4388C11.6024 18.5288 11.7787 18.5963 12.0074 18.5963C12.2362 18.5963 12.4124 18.5288 12.5324 18.4388C13.8262 17.4525 15.7124 15.7988 17.2537 13.9275C18.6112 12.2813 19.8074 10.4625 19.8074 8.59126C19.8074 6.82876 18.3787 5.40001 16.6162 5.40001H16.6087ZM12.5624 5.66626C13.4999 4.36876 15.0074 3.60001 16.6087 3.60001C19.3649 3.60001 21.5999 5.83501 21.5999 8.59126C21.5999 11.1638 19.9912 13.425 18.6337 15.0713C16.9799 17.0813 14.9849 18.825 13.6162 19.8675C13.1549 20.22 12.5849 20.3963 11.9999 20.3963C11.4149 20.3963 10.8449 20.22 10.3837 19.8675C9.0149 18.825 7.0199 17.0813 5.36615 15.075C4.00865 13.4288 2.3999 11.1638 2.3999 8.59126C2.3999 5.83501 4.6349 3.60001 7.39115 3.60001C8.9924 3.60001 10.4999 4.36876 11.4374 5.66626L11.9999 6.44251L12.5624 5.66626Z" fill="black"/>
</svg>
