<svg width="24" height="24" viewBox="0 0 24 24" fill="none" xmlns="http://www.w3.org/2000/svg">
<path d="M11.4001 2.62876C11.7414 2.32126 12.2589 2.32126 12.6001 2.62876L21.3001 10.4288C21.6714 10.7588 21.7014 11.3288 21.3676 11.7C21.0339 12.0713 20.4676 12.1013 20.0964 11.7675L19.7964 11.4975V19.1963C19.7964 20.52 18.7201 21.5963 17.3964 21.5963H6.59637C5.27262 21.5963 4.19637 20.52 4.19637 19.1963V11.4975L3.89637 11.7675C3.52512 12.0975 2.95887 12.0675 2.62512 11.7C2.29137 11.3325 2.32512 10.7625 2.69262 10.4288L11.4001 2.62876ZM12.0001 4.50751L6.00012 9.88876V19.2C6.00012 19.53 6.27012 19.8 6.60012 19.8H8.40012V15.9C8.40012 14.4075 9.60762 13.2 11.1001 13.2H12.9001C14.3926 13.2 15.6001 14.4075 15.6001 15.9V19.8H17.4001C17.7301 19.8 18.0001 19.53 18.0001 19.2V9.88876L12.0001 4.51126V4.50751ZM10.2001 19.8H13.8001V15.9C13.8001 15.4013 13.3989 15 12.9001 15H11.1001C10.6014 15 10.2001 15.4013 10.2001 15.9V19.8Z" fill="black"/>
</svg>
