<svg width="20" height="20" viewBox="0 0 20 20" fill="none" xmlns="http://www.w3.org/2000/svg">
<path d="M12.75 1.75V3.5C12.75 3.91563 12.4156 4.25 12 4.25C11.5844 4.25 11.25 3.91563 11.25 3.5V1.75C11.25 1.33437 11.5844 1 12 1C12.4156 1 12.75 1.33437 12.75 1.75ZM8.03125 2.46875L9.28125 3.71875C9.575 4.0125 9.575 4.4875 9.28125 4.77812C8.9875 5.06875 8.5125 5.07187 8.22188 4.77812L6.96875 3.53125C6.675 3.2375 6.675 2.7625 6.96875 2.47187C7.2625 2.18125 7.7375 2.17812 8.02812 2.47187L8.03125 2.46875ZM17.0312 3.53125L15.7812 4.78125C15.4875 5.075 15.0125 5.075 14.7219 4.78125C14.4313 4.4875 14.4281 4.0125 14.7219 3.72187L15.9719 2.47187C16.2656 2.17812 16.7406 2.17812 17.0312 2.47187C17.3219 2.76562 17.325 3.24062 17.0312 3.53125ZM12 13C13.6562 13 15 11.6562 15 10C15 8.34375 13.6562 7 12 7C10.3438 7 9 8.34375 9 10C9 11.6562 10.3438 13 12 13ZM12 14.5C9.51562 14.5 7.5 12.4844 7.5 10C7.5 9.83125 7.50937 9.66562 7.52812 9.5H3C2.725 9.5 2.5 9.725 2.5 10V15C2.5 15.275 2.725 15.5 3 15.5H17C17.275 15.5 17.5 15.275 17.5 15V10C17.5 9.725 17.275 9.5 17 9.5H16.4719C16.4906 9.66562 16.5 9.83125 16.5 10C16.5 12.4844 14.4844 14.5 12 14.5ZM12 5.5C13.7656 5.5 15.2969 6.51875 16.0312 8H17C18.1031 8 19 8.89687 19 10V15C19 16.1031 18.1031 17 17 17V17.25C17 17.6656 16.6656 18 16.25 18C15.8344 18 15.5 17.6656 15.5 17.25V17H4.5V17.25C4.5 17.6656 4.16563 18 3.75 18C3.33437 18 3 17.6656 3 17.25V17C1.89688 17 1 16.1031 1 15V10C1 8.89687 1.89688 8 3 8H7.96875C8.70625 6.51875 10.2344 5.5 12 5.5ZM3.5 11.25C3.5 10.8344 3.83437 10.5 4.25 10.5H5.75C6.16563 10.5 6.5 10.8344 6.5 11.25C6.5 11.6656 6.16563 12 5.75 12H4.25C3.83437 12 3.5 11.6656 3.5 11.25ZM4.25 13H6.25C6.66563 13 7 13.3344 7 13.75C7 14.1656 6.66563 14.5 6.25 14.5H4.25C3.83437 14.5 3.5 14.1656 3.5 13.75C3.5 13.3344 3.83437 13 4.25 13Z" fill="black"/>
</svg>
